<svg xmlns="http://www.w3.org/2000/svg" viewBox="0 0 160 140"><defs><linearGradient id="blue" x2="1" y2="0"><stop stop-color="#d6f0f3"/><stop offset="1" stop-color="#99c9da"/></linearGradient><linearGradient id="amber" x2="1" y2="0"><stop stop-color="#7c6a35"/><stop offset=".4" stop-color="#b49845"/><stop offset="1" stop-color="#66532d"/></linearGradient><linearGradient id="red" x2="1" y2="0"><stop stop-color="#b85740"/><stop offset=".6" stop-color="#d47658"/><stop offset="1" stop-color="#b85e47"/></linearGradient><linearGradient id="orange" x2="0" y2="1"><stop stop-color="#f9c250"/><stop offset="1" stop-color="#eda238"/></linearGradient><linearGradient id="bun" x2="0" y2="1"><stop stop-color="#f0cd8b"/><stop offset="1" stop-color="#dfaa61"/></linearGradient></defs><ellipse cx="80" cy="126" rx="47" ry="6" fill="#a19178" opacity=".13"/><path d="m46 71-4-50 12-1 6 54m1-3-1-57 12 0 3 58m7 1 3-62 12 2-6 64m8 0 12-54 12 3-11 58m-35 1 3-39 11 1-2 40" stroke="#dba540" stroke-width="2" fill="#f8d477"/><path d="m38 65 9 55q33 9 66 0l9-55c-13 6-27 12-42 12S52 71 38 65Z" fill="url(#red)" stroke="#b95940" stroke-width="2"/><path d="M64 96q16-13 32 0" fill="none" stroke="#f9d88c" stroke-width="4"/><circle cx="80" cy="99" r="7" fill="#f9d88c"/></svg>