<svg xmlns="http://www.w3.org/2000/svg" viewBox="0 0 160 140"><defs><linearGradient id="blue" x2="1" y2="0"><stop stop-color="#d6f0f3"/><stop offset="1" stop-color="#99c9da"/></linearGradient><linearGradient id="amber" x2="1" y2="0"><stop stop-color="#7c6a35"/><stop offset=".4" stop-color="#b49845"/><stop offset="1" stop-color="#66532d"/></linearGradient><linearGradient id="red" x2="1" y2="0"><stop stop-color="#b85740"/><stop offset=".6" stop-color="#d47658"/><stop offset="1" stop-color="#b85e47"/></linearGradient><linearGradient id="orange" x2="0" y2="1"><stop stop-color="#f9c250"/><stop offset="1" stop-color="#eda238"/></linearGradient><linearGradient id="bun" x2="0" y2="1"><stop stop-color="#f0cd8b"/><stop offset="1" stop-color="#dfaa61"/></linearGradient></defs><ellipse cx="80" cy="126" rx="47" ry="6" fill="#a19178" opacity=".13"/><rect x="61" y="15" width="37" height="13" rx="4" fill="#2c6484"/><path d="M64 28h31v15l9 15v52c0 8-6 12-13 12H68c-8 0-13-4-13-12V58l9-15Z" fill="url(#blue)" stroke="#4c8fab" stroke-width="2"/><path d="M64 43h31M59 62h40M59 69h40M59 106h40" stroke="#a0d1dd" stroke-width="2"/><rect x="55" y="77" width="49" height="28" rx="3" fill="#fffdf7"/><path d="M65 94q8-8 15 0t15 0" fill="none" stroke="#338aab" stroke-width="3"/><path d="M65 56v15" stroke="white" stroke-width="3" opacity=".8"/></svg>